<svg xmlns="http://www.w3.org/2000/svg" width="548.295" height="69.162" viewBox="0 0 548.295 69.162">
  <g id="Group_13" data-name="Group 13" transform="translate(-739.934 -15.165)">
    <path id="Path_3" data-name="Path 3" d="M81.617,34.059v4.574H76.45V34.059ZM14.455,38.633h5.168V34.059H14.455Zm56.827-9.148v4.574H76.45V29.485ZM66.123,24.92v4.565h5.158V24.92Zm-46.5,9.139h5.168V29.485H19.623Zm5.168-4.574h5.168V24.92H24.791Zm5.168-9.139V24.92H66.123V20.346ZM66.123,47.78h5.158V43.206H66.123Zm-5.168-9.148v4.574h5.168V38.633ZM35.117,34.059v4.574H60.956V34.059Zm-5.158,9.148h5.158V38.633H29.958ZM24.791,47.78h5.168V43.206H24.791Zm10.326,9.148h5.168V52.354H35.117Zm20.671,0h5.168V52.354H55.788Zm-15.5-9.148v4.574h15.5V47.78ZM50.62,56.928H45.452V61.5H40.284v4.565h5.168v4.574H50.62V66.067h5.168V61.5H50.62Z" transform="translate(720.588 97.782) rotate(-90)" fill="none" stroke="#fff" stroke-width="2"/>
    <path id="Path_4" data-name="Path 4" d="M81.617,34.059v4.574H76.45V34.059ZM14.455,38.633h5.168V34.059H14.455Zm56.827-9.148v4.574H76.45V29.485ZM66.123,24.92v4.565h5.158V24.92Zm-46.5,9.139h5.168V29.485H19.623Zm5.168-4.574h5.168V24.92H24.791Zm5.168-9.139V24.92H66.123V20.346ZM66.123,47.78h5.158V43.206H66.123Zm-5.168-9.148v4.574h5.168V38.633ZM35.117,34.059v4.574H60.956V34.059Zm-5.158,9.148h5.158V38.633H29.958ZM24.791,47.78h5.168V43.206H24.791Zm10.326,9.148h5.168V52.354H35.117Zm20.671,0h5.168V52.354H55.788Zm-15.5-9.148v4.574h15.5V47.78ZM50.62,56.928H45.452V61.5H40.284v4.565h5.168v4.574H50.62V66.067h5.168V61.5H50.62Z" transform="translate(1307.575 1.71) rotate(90)" fill="none" stroke="#fff" stroke-width="2"/>
    <text id="SCREAM_N_SHOUT" data-name="SCREAM ’N SHOUT" transform="translate(1014 66)" fill="none" stroke="#fff" stroke-width="2" font-size="45" font-family="PxGrotesk-Screen, Px Grotesk"><tspan x="-198.9" y="0">SCREAM ’N SHOUT</tspan></text>
  </g>
</svg>
