<?xml version="1.0" encoding="utf-8"?>
<!-- Generator: Adobe Illustrator 24.3.0, SVG Export Plug-In . SVG Version: 6.00 Build 0)  -->
<svg version="1.1" id="Layer_1" xmlns="http://www.w3.org/2000/svg" xmlns:xlink="http://www.w3.org/1999/xlink" x="0px" y="0px"
	 viewBox="0 0 548.3 69.2" style="enable-background:new 0 0 548.3 69.2;" xml:space="preserve">
<style type="text/css">
	.st0{fill:#FFFFFF;}
	.st1{enable-background:new    ;}
	.st2{fill:none;stroke:#FFFFFF;stroke-width:2;}
</style>
<g id="Group_32" transform="translate(-211 -2350.165)">
	<g id="Path_3">
		<path class="st0" d="M246,2417.3h-6.2v-4.9h-4.3v-4.9h-4.3v-4.9h-4.3v-36h4.3v-4.9h4.3v-4.9h4.3v-4.9h6.2v6.8h-4.3v4.9h-4.3v4.9
			H233v32.2h4.3v4.9h4.3v4.9h4.3V2417.3z M241.7,2415.4h2.4v-3h-2.4V2415.4z M237.4,2410.6h2.4v-3h-2.4V2410.6z M233,2405.7h2.4v-3
			H233V2405.7z M228.7,2400.8h2.4v-32.2h-2.4V2400.8z M233,2366.8h2.4v-3H233V2366.8z M237.4,2361.9h2.4v-3h-2.4V2361.9z
			 M241.7,2357h2.4v-3h-2.4V2357z M254.6,2407.6h-6.2v-4.9l-4.3,0v-4.9h-4.3v-26.2h4.3l0-4.9h4.3v-4.9h6.2v6.7h-4.3v4.9H246v22.5
			h4.3v4.9h4.3V2407.6z M250.3,2405.7h2.4v-3h-2.4V2405.7z M246,2397.9v3l2.4,0v-3H246z M241.7,2396h2.4l0-22.5h-2.4V2396z
			 M246,2371.6h2.4v-3H246V2371.6L246,2371.6z M250.3,2366.8h2.4v-3h-2.4V2366.8z M263.2,2397.9H257v-4.9h-4.3v-16.5h4.3v-4.9h6.2
			v6.8h-4.3v12.7h4.3V2397.9z M258.9,2396h2.4v-3h-2.4V2396z M254.6,2391.1h2.4v-12.7h-2.4V2391.1z M258.9,2376.5h2.4v-3h-2.4
			V2376.5z M271.8,2393h-6.2v-4.9h-4.3v-6.8h4.3v-4.9h6.2v4.9h4.3v6.8h-4.3V2393z M267.5,2391.1h2.4v-4.9h4.3v-3h-4.3v-4.9h-2.4v4.9
			h-4.3v3h4.3V2391.1z"/>
	</g>
	<g id="Path_4">
		<path class="st0" d="M730.5,2417.3h-6.2v-6.8h4.3v-4.9h4.3v-4.9h4.3v-32.2h-4.3v-4.9h-4.3v-4.9h-4.3v-6.8h6.2v4.9h4.3v4.9h4.3v4.9
			h4.3v36h-4.3v4.9h-4.3v4.9h-4.3V2417.3z M726.2,2415.4h2.4v-3h-2.4V2415.4z M730.5,2410.6h2.4v-3h-2.4V2410.6z M734.8,2405.7h2.4
			v-3h-2.4V2405.7z M739.1,2400.8h2.4v-32.2h-2.4V2400.8z M734.8,2366.8h2.4v-3h-2.4V2366.8z M730.5,2361.9h2.4v-3h-2.4V2361.9z
			 M726.2,2357h2.4v-3h-2.4V2357z M721.9,2407.6h-6.2v-6.7h4.3v-4.9h4.3v-22.5H720v-4.9h-4.3v-6.8h6.2v4.9l4.3,0v4.9h4.3v26.2h-4.3
			l0,4.9h-4.3V2407.6z M717.6,2405.7h2.4v-3h-2.4V2405.7z M721.9,2400.8h2.4l0-3l-2.4,0V2400.8z M726.2,2396h2.4v-22.5h-2.4
			L726.2,2396z M721.9,2371.6h2.4v-3l-2.4,0V2371.6z M717.6,2366.8h2.4v-3h-2.4V2366.8z M713.3,2397.9h-6.2v-6.8h4.3v-12.7h-4.3
			v-6.8h6.2v4.9h4.3v16.5h-4.3V2397.9z M709,2396h2.4v-3H709V2396z M713.3,2391.1h2.4v-12.7h-2.4V2391.1z M709,2376.5h2.4v-3H709
			V2376.5z M704.7,2393h-6.2v-4.9h-4.3v-6.8h4.3v-4.9h6.2v4.9h4.3v6.8h-4.3V2393z M700.4,2391.1h2.4v-4.9h4.3v-3h-4.3v-4.9h-2.4v4.9
			h-4.3v3h4.3V2391.1z"/>
	</g>
	<g class="st1">
		<path class="st2" d="M301.3,2382v-7.2h3.6v7.2H301.3z M301.3,2396.5v-3.6h3.6v3.6H301.3z M304.9,2374.8v-3.6h10.8v3.6H304.9z
			 M304.9,2385.7v-3.6h7.2v3.6H304.9z M304.9,2400.1v-3.6h10.8v3.6H304.9z M312.1,2389.3v-3.6h3.6v3.6H312.1z M315.7,2378.4v-3.6
			h3.6v3.6H315.7z M315.7,2396.5v-7.2h3.6v7.2H315.7z"/>
		<path class="st2" d="M326.5,2396.5v-21.6h3.6v21.6H326.5z M330.1,2374.8v-3.6h14.4v3.6H330.1z M330.1,2400.1v-3.6h14.4v3.6H330.1z
			 M344.5,2378.4v-3.6h3.6v3.6H344.5z M344.5,2396.5v-3.6h3.6v3.6H344.5z"/>
		<path class="st2" d="M355.3,2400.1v-28.8h14.4v3.6h3.6v10.8h-3.6v-10.8h-10.8v10.8h10.8v3.6h-3.6v3.6h3.6v3.6h3.6v3.6h-3.6v-3.6
			h-3.6v-3.6h-3.6v-3.6h-3.6v10.8H355.3z"/>
		<path class="st2" d="M380.5,2400.1v-28.8h18v3.6h-14.4v7.2h14.4v3.6h-14.4v10.8h14.4v3.6H380.5z"/>
		<path class="st2" d="M405.7,2400.1v-7.2h3.6v7.2H405.7z M409.3,2392.9v-7.2h3.6v3.6h10.8v-3.6h3.6v7.2H409.3z M412.9,2385.7v-7.2
			h3.6v7.2H412.9z M416.5,2378.4v-7.2h3.6v7.2H416.5z M420.1,2385.7v-7.2h3.6v7.2H420.1z M427.4,2400.1v-7.2h3.6v7.2H427.4z"/>
		<path class="st2" d="M438.2,2400.1v-28.8h7.2v7.2h3.6v10.8h7.2v10.8H449v-10.8h-3.6v-10.8h-3.6v21.6H438.2z M456.2,2389.3v-10.8
			h3.6v10.8H456.2z M459.8,2378.4v-7.2h7.2v28.8h-3.6v-21.6H459.8z"/>
		<path class="st2" d="M485,2378.4v-7.2h7.2v10.8h-3.6v-3.6H485z M485,2385.7v-3.6h3.6v3.6H485z"/>
		<path class="st2" d="M499.4,2400.1v-28.8h7.2v7.2h3.6v7.2h3.6v7.2h3.6v-21.6h3.6v28.8h-7.2v-7.2h-3.6v-7.2h-3.6v-7.2H503v21.6
			H499.4z"/>
		<path class="st2" d="M539,2382v-7.2h3.6v7.2H539z M539,2396.5v-3.6h3.6v3.6H539z M542.6,2374.8v-3.6h10.8v3.6H542.6z
			 M542.6,2385.7v-3.6h7.2v3.6H542.6z M542.6,2400.1v-3.6h10.8v3.6H542.6z M549.8,2389.3v-3.6h3.6v3.6H549.8z M553.4,2378.4v-3.6
			h3.6v3.6H553.4z M553.4,2396.5v-7.2h3.6v7.2H553.4z"/>
		<path class="st2" d="M564.2,2400.1v-28.8h3.6v10.8h14.4v-10.8h3.6v28.8h-3.6v-14.4h-14.4v14.4H564.2z"/>
		<path class="st2" d="M593,2396.5v-21.6h3.6v21.6H593z M596.7,2374.8v-3.6h14.4v3.6H596.7z M596.7,2400.1v-3.6h14.4v3.6H596.7z
			 M611.1,2396.5v-21.6h3.6v21.6H611.1z"/>
		<path class="st2" d="M621.9,2396.5v-25.2h3.6v25.2H621.9z M625.5,2400.1v-3.6h14.4v3.6H625.5z M639.9,2396.5v-25.2h3.6v25.2H639.9
			z"/>
		<path class="st2" d="M650.7,2374.8v-3.6h18v3.6h-7.2v25.2h-3.6v-25.2H650.7z"/>
	</g>
</g>
</svg>
