<?xml version="1.0" encoding="utf-8"?>
<!-- Generator: Adobe Illustrator 24.3.0, SVG Export Plug-In . SVG Version: 6.00 Build 0)  -->
<svg version="1.1" id="Layer_1" xmlns="http://www.w3.org/2000/svg" xmlns:xlink="http://www.w3.org/1999/xlink" x="0px" y="0px"
	 viewBox="0 0 422.8 69.2" style="enable-background:new 0 0 422.8 69.2;" xml:space="preserve">
<style type="text/css">
	.st0{enable-background:new    ;}
	.st1{fill:none;stroke:#FFFFFF;stroke-width:2;}
</style>
<g id="Group_32" transform="translate(-211 -2350.165)">
	<g class="st0">
		<path class="st1" d="M214.9,2381.6v-8.1h4.1v8.1H214.9z M214.9,2397.9v-4.1h4.1v4.1H214.9z M219,2373.5v-4.1h12.2v4.1H219z
			 M219,2385.8v-4.1h8.1v4.1H219z M219,2402v-4.1h12.2v4.1H219z M227.1,2389.8v-4.1h4.1v4.1H227.1z M231.2,2377.6v-4.1h4.1v4.1
			H231.2z M231.2,2397.9v-8.1h4.1v8.1H231.2z"/>
		<path class="st1" d="M243.4,2397.9v-24.3h4.1v24.3H243.4z M247.5,2373.5v-4.1h16.2v4.1H247.5z M247.5,2402v-4.1h16.2v4.1H247.5z
			 M263.6,2377.6v-4.1h4.1v4.1H263.6z M263.6,2397.9v-4.1h4.1v4.1H263.6z"/>
		<path class="st1" d="M275.9,2402v-32.5h16.3v4.1h4.1v12.2h-4.1v-12.2h-12.2v12.2h12.2v4.1h-4.1v4.1h4.1v4.1h4.1v4.1h-4.1v-4.1
			h-4.1v-4.1H284v-4.1h-4.1v12.2L275.9,2402L275.9,2402z"/>
		<path class="st1" d="M304.3,2402v-32.5h20.4v4.1h-16.3v8.1h16.3v4.1h-16.3v12.2h16.3v4.1L304.3,2402L304.3,2402z"/>
		<path class="st1" d="M332.8,2402v-8.1h4.1v8.1H332.8z M336.8,2393.8v-8.1h4.1v4.1h12.2v-4.1h4.1v8.1H336.8z M340.9,2385.8v-8.1
			h4.1v8.1H340.9z M345,2377.6v-8.1h4.1v8.1H345z M348.9,2385.8v-8.1h4.1v8.1H348.9z M357.2,2402v-8.1h4.1v8.1H357.2z"/>
		<path class="st1" d="M369.4,2402v-32.5h8.1v8.1h4.1v12.2h8.1v12.2h-8.1v-12.2h-4.1v-12.2h-4.1v24.3H369.4z M389.8,2389.8v-12.2
			h4.1v12.2H389.8z M393.8,2377.6v-8.1h8.1v32.5h-4.1v-24.3H393.8z"/>
		<path class="st1" d="M422.2,2377.6v-8.1h8.1v12.2h-4.1v-4.1L422.2,2377.6L422.2,2377.6z M422.2,2385.8v-4.1h4.1v4.1H422.2z"/>
		<path class="st1" d="M438.5,2402v-32.5h8.1v8.1h4.1v8.1h4.1v8.1h4.1v-24.3h4.1v32.5h-8.1v-8.1h-4.1v-8.1h-4.1v-8.1h-4.1v24.3
			H438.5z"/>
		<path class="st1" d="M483.2,2381.6v-8.1h4.1v8.1H483.2z M483.2,2397.9v-4.1h4.1v4.1H483.2z M487.2,2373.5v-4.1h12.2v4.1H487.2z
			 M487.2,2385.8v-4.1h8.1v4.1H487.2z M487.2,2402v-4.1h12.2v4.1H487.2z M495.3,2389.8v-4.1h4.1v4.1H495.3z M499.4,2377.6v-4.1h4.1
			v4.1H499.4z M499.4,2397.9v-8.1h4.1v8.1H499.4z"/>
		<path class="st1" d="M511.6,2402v-32.5h4.1v12.2H532v-12.2h4.1v32.5H532v-16.3h-16.3v16.3H511.6z"/>
		<path class="st1" d="M544.1,2397.9v-24.3h4.1v24.3H544.1z M548.3,2373.5v-4.1h16.3v4.1H548.3z M548.3,2402v-4.1h16.3v4.1H548.3z
			 M564.6,2397.9v-24.3h4.1v24.3H564.6z"/>
		<path class="st1" d="M576.8,2397.9v-28.4h4.1v28.4H576.8z M580.7,2402v-4.1H597v4.1H580.7z M597,2397.9v-28.4h4.1v28.4H597z"/>
		<path class="st1" d="M609.2,2373.5v-4.1h20.4v4.1h-8.1v28.4h-4.1v-28.4H609.2z"/>
	</g>
</g>
</svg>
