<?xml version="1.0" encoding="utf-8"?>
<!-- Generator: Adobe Illustrator 24.3.0, SVG Export Plug-In . SVG Version: 6.00 Build 0)  -->
<svg version="1.1" id="Layer_1" xmlns="http://www.w3.org/2000/svg" xmlns:xlink="http://www.w3.org/1999/xlink" x="0px" y="0px"
	 viewBox="0 0 548.3 69.2" style="enable-background:new 0 0 548.3 69.2;" xml:space="preserve">
<style type="text/css">
	.st0{fill:#FFFFFF;}
	.st1{enable-background:new    ;}
	.st2{fill:none;stroke:#FFFFFF;stroke-width:2;}
</style>
<g id="Group_32" transform="translate(-211 -2350.165)">
	<g id="Path_3">
		<path class="st0" d="M233.3,2419h-6.5v-5.2h-4.5v-5.2h-4.5v-5.2h-4.5v-37.9h4.5v-5.2h4.5v-5.2h4.5v-5.2h6.5v7.2h-4.5v5.2h-4.5v5.2
			h-4.6v33.9h4.5v5.2h4.5v5.2h4.5v7.2H233.3z M228.8,2417h2.5v-3.2h-2.5V2417z M224.3,2412h2.5v-3.2h-2.5V2412z M219.6,2406.8h2.5
			v-3.2h-2.5V2406.8z M215.1,2401.7h2.5v-33.9h-2.5V2401.7z M219.6,2365.9h2.5v-3.2h-2.5V2365.9z M224.3,2360.7h2.5v-3.2h-2.5
			V2360.7z M228.8,2355.5h2.5v-3.2h-2.5V2355.5z M242.4,2408.8h-6.5v-5.2h-4.5v-5.2h-4.5v-27.6h4.5v-5.2h4.5v-5.2h6.5v7.1h-4.5v5.2
			h-4.5v23.7h4.5v5.2h4.5V2408.8z M237.8,2406.8h2.5v-3.2h-2.5V2406.8z M233.3,2398.6v3.2h2.5v-3.2H233.3z M228.8,2396.6h2.5v-23.7
			h-2.5V2396.6z M233.3,2370.9h2.5v-3.2h-2.5V2370.9L233.3,2370.9z M237.8,2365.9h2.5v-3.2h-2.5V2365.9z M251.4,2398.6h-6.5v-5.2
			h-4.5v-17.4h4.5v-5.2h6.5v7.2h-4.5v13.4h4.5V2398.6z M246.9,2396.6h2.5v-3.2h-2.5V2396.6z M242.4,2391.4h2.5v-13.4h-2.5V2391.4z
			 M246.9,2376.1h2.5v-3.2h-2.5V2376.1z M260.5,2393.4h-6.5v-5.2h-4.5v-7.2h4.5v-5.2h6.5v5.2h4.5v7.2h-4.5V2393.4z M255.9,2391.4
			h2.5v-5.2h4.5v-3.2h-4.5v-5.2h-2.5v5.2h-4.5v3.2h4.5V2391.4z"/>
	</g>
	<g id="Path_4">
		<path class="st0" d="M743.5,2419H737v-7.2h4.5v-5.2h4.5v-5.2h4.5v-33.9H746v-5.2h-4.5v-5.2H737v-7.2h6.5v5.2h4.5v5.2h4.5v5.2h4.5
			v37.9h-4.5v5.2H748v5.2h-4.5V2419z M739,2417h2.5v-3.2H739V2417z M743.5,2412h2.5v-3.2h-2.5V2412z M748,2406.8h2.5v-3.2H748
			V2406.8z M752.6,2401.7h2.5v-33.9h-2.5V2401.7z M748,2365.9h2.5v-3.2H748V2365.9z M743.5,2360.7h2.5v-3.2h-2.5V2360.7z
			 M739,2355.5h2.5v-3.2H739V2355.5z M734.5,2408.8h-6.5v-7.1h4.5v-5.2h4.5v-23.7h-4.5v-5.2h-4.5v-7.2h6.5v5.2h4.5v5.2h4.5v27.6H739
			v5.2h-4.5V2408.8z M729.9,2406.8h2.5v-3.2h-2.5V2406.8z M734.5,2401.7h2.5v-3.2h-2.5V2401.7z M739,2396.6h2.5v-23.7H739V2396.6z
			 M734.5,2370.9h2.5v-3.2h-2.5V2370.9z M729.9,2365.9h2.5v-3.2h-2.5V2365.9z M725.4,2398.6h-6.5v-7.2h4.5v-13.4h-4.5v-7.2h6.5v5.2
			h4.5v17.4h-4.5V2398.6z M720.9,2396.6h2.5v-3.2h-2.5V2396.6z M725.4,2391.4h2.5v-13.4h-2.5V2391.4z M720.9,2376.1h2.5v-3.2h-2.5
			V2376.1z M716.4,2393.4h-6.5v-5.2h-4.5v-7.2h4.5v-5.2h6.5v5.2h4.5v7.2h-4.5V2393.4z M711.8,2391.4h2.5v-5.2h4.5v-3.2h-4.5v-5.2
			h-2.5v5.2h-4.5v3.2h4.5V2391.4z"/>
	</g>
	<g class="st1">
		<path class="st2" d="M291.5,2381.9v-7.6h3.8v7.6H291.5z M291.5,2397.1v-3.8h3.8v3.8H291.5z M295.3,2374.3v-3.8h11.4v3.8H295.3z
			 M295.3,2385.8v-3.8h7.6v3.8H295.3z M295.3,2400.9v-3.8h11.4v3.8H295.3z M302.9,2389.5v-3.8h3.8v3.8H302.9z M306.7,2378.1v-3.8
			h3.8v3.8H306.7z M306.7,2397.1v-7.6h3.8v7.6H306.7z"/>
		<path class="st2" d="M318.1,2397.1v-22.7h3.8v22.7H318.1z M321.9,2374.3v-3.8H337v3.8H321.9z M321.9,2400.9v-3.8H337v3.8H321.9z
			 M337,2378.1v-3.8h3.8v3.8H337z M337,2397.1v-3.8h3.8v3.8H337z"/>
		<path class="st2" d="M348.4,2400.9v-30.3h15.2v3.8h3.8v11.4h-3.8v-11.4h-11.4v11.4h11.4v3.8h-3.8v3.8h3.8v3.8h3.8v3.8h-3.8v-3.8
			h-3.8v-3.8H356v-3.8h-3.8v11.4L348.4,2400.9L348.4,2400.9z"/>
		<path class="st2" d="M374.9,2400.9v-30.3h19v3.8h-15.2v7.6h15.2v3.8h-15.2v11.4h15.2v3.8L374.9,2400.9L374.9,2400.9z"/>
		<path class="st2" d="M401.5,2400.9v-7.6h3.8v7.6H401.5z M405.3,2393.3v-7.6h3.8v3.8h11.4v-3.8h3.8v7.6H405.3z M409.1,2385.8v-7.6
			h3.8v7.6H409.1z M412.9,2378.1v-7.6h3.8v7.6H412.9z M416.6,2385.8v-7.6h3.8v7.6H416.6z M424.3,2400.9v-7.6h3.8v7.6H424.3z"/>
		<path class="st2" d="M435.7,2400.9v-30.3h7.6v7.6h3.8v11.4h7.6v11.4h-7.6v-11.4h-3.8v-11.4h-3.8v22.7H435.7z M454.7,2389.5v-11.4
			h3.8v11.4H454.7z M458.5,2378.1v-7.6h7.6v30.3h-3.8v-22.7H458.5z"/>
		<path class="st2" d="M485,2378.1v-7.6h7.6v11.4h-3.8v-3.8H485z M485,2385.8v-3.8h3.8v3.8H485z"/>
		<path class="st2" d="M500.2,2400.9v-30.3h7.6v7.6h3.8v7.6h3.8v7.6h3.8v-22.7h3.8v30.3h-7.6v-7.6h-3.8v-7.6h-3.8v-7.6h-3.8v22.7
			H500.2z"/>
		<path class="st2" d="M541.9,2381.9v-7.6h3.8v7.6H541.9z M541.9,2397.1v-3.8h3.8v3.8H541.9z M545.6,2374.3v-3.8H557v3.8H545.6z
			 M545.6,2385.8v-3.8h7.6v3.8H545.6z M545.6,2400.9v-3.8H557v3.8H545.6z M553.2,2389.5v-3.8h3.8v3.8H553.2z M557,2378.1v-3.8h3.8
			v3.8H557z M557,2397.1v-7.6h3.8v7.6H557z"/>
		<path class="st2" d="M568.4,2400.9v-30.3h3.8v11.4h15.2v-11.4h3.8v30.3h-3.8v-15.2h-15.2v15.2H568.4z"/>
		<path class="st2" d="M598.7,2397.1v-22.7h3.8v22.7H598.7z M602.6,2374.3v-3.8h15.2v3.8H602.6z M602.6,2400.9v-3.8h15.2v3.8H602.6z
			 M617.8,2397.1v-22.7h3.8v22.7H617.8z"/>
		<path class="st2" d="M629.2,2397.1v-26.5h3.8v26.5H629.2z M632.9,2400.9v-3.8h15.2v3.8H632.9z M648.1,2397.1v-26.5h3.8v26.5H648.1
			z"/>
		<path class="st2" d="M659.5,2374.3v-3.8h19v3.8h-7.6v26.5h-3.8v-26.5H659.5z"/>
	</g>
</g>
</svg>
